<?xml version="1.0" encoding="UTF-8"?>
<svg id="Livello_1" data-name="Livello 1" xmlns="http://www.w3.org/2000/svg" xmlns:xlink="http://www.w3.org/1999/xlink" viewBox="0 0 1298.47 344.96">
  <defs>
    <style>
      .cls-1 {
        fill: #d2eaf8;
      }

      .cls-2 {
        fill: #cde8f7;
      }

      .cls-3 {
        fill: #94cdec;
      }

      .cls-4 {
        fill: #b7ddf3;
      }

      .cls-5 {
        fill: #81c4e9;
      }

      .cls-6 {
        fill: #c7e5f6;
      }

      .cls-7 {
        fill: #78c0e7;
      }

      .cls-8 {
        fill: #dbeff9;
      }

      .cls-9 {
        fill: #d9eef9;
      }

      .cls-10 {
        fill: #0c2128;
      }

      .cls-11 {
        fill: #cbe7f6;
      }

      .cls-12 {
        fill: #bde0f4;
      }

      .cls-13 {
        fill: #6ebbe5;
      }

      .cls-14 {
        fill: #add9f1;
      }

      .cls-15 {
        fill: #c8e6f6;
      }

      .cls-16 {
        fill: #001116;
      }

      .cls-17 {
        clip-path: url(#clippath-2);
      }

      .cls-18 {
        fill: #b0daf1;
      }

      .cls-19 {
        fill: #4ca8d1;
      }

      .cls-20 {
        fill: #27454f;
      }

      .cls-21 {
        fill: #ddf0fa;
      }

      .cls-22 {
        fill: #091e24;
      }

      .cls-23 {
        fill: #d1eaf8;
      }

      .cls-24 {
        fill: #284752;
      }

      .cls-25 {
        fill: #203c45;
      }

      .cls-26 {
        fill: #d6ecf8;
      }

      .cls-27 {
        fill: #91cbec;
      }

      .cls-28 {
        fill: #23404a;
      }

      .cls-29 {
        fill: #c0e2f4;
      }

      .cls-30 {
        fill: #2a4a55;
      }

      .cls-31 {
        fill: #172b32;
      }

      .cls-32 {
        stroke: #4ca8d1;
      }

      .cls-32, .cls-33, .cls-34 {
        fill: none;
      }

      .cls-35 {
        fill: #aad8f0;
      }

      .cls-36 {
        fill: #a2d3ef;
      }

      .cls-37 {
        fill: #98cfed;
      }

      .cls-38 {
        fill: #25424c;
      }

      .cls-39 {
        fill: #a8d6f0;
      }

      .cls-40 {
        fill: #152d35;
      }

      .cls-41 {
        fill: #26444e;
      }

      .cls-42 {
        fill: #9fd2ee;
      }

      .cls-43 {
        clip-path: url(#clippath-1);
      }

      .cls-44 {
        fill: #1a353d;
      }

      .cls-45 {
        fill: #daeef9;
      }

      .cls-46 {
        fill: #d0e9f7;
      }

      .cls-47 {
        fill: #132b32;
      }

      .cls-48 {
        fill: #bfe1f4;
      }

      .cls-49 {
        fill: #7cc2e8;
      }

      .cls-33 {
        stroke: #172b32;
        stroke-width: 2px;
      }

      .cls-50 {
        fill: #2a4954;
      }

      .cls-51 {
        fill: #0f252c;
      }

      .cls-52 {
        fill: #cee8f7;
      }

      .cls-53 {
        fill: #2b4a55;
      }

      .cls-54 {
        fill: #8dcaeb;
      }

      .cls-55 {
        fill: #2b4b56;
      }

      .cls-56 {
        fill: #d3ebf8;
      }

      .cls-57 {
        fill: #dceffa;
      }

      .cls-58 {
        fill: #c4e4f5;
      }

      .cls-59 {
        fill: #24414b;
      }

      .cls-60 {
        fill: #1d3942;
      }

      .cls-61 {
        fill: #b4dcf2;
      }

      .cls-62 {
        fill: #dbeffa;
      }

      .cls-63 {
        fill: #b9def3;
      }

      .cls-64 {
        fill: #11282f;
      }

      .cls-65 {
        fill: #294953;
      }

      .cls-66 {
        fill: #d4ebf8;
      }

      .cls-67 {
        fill: #a5d5ef;
      }

      .cls-68 {
        fill: #d8edf9;
      }

      .cls-69 {
        fill: #89c8ea;
      }

      .cls-70 {
        clip-path: url(#clippath);
      }

      .cls-71 {
        fill: #bbdff3;
      }

      .cls-72 {
        fill: #cfe9f7;
      }

      .cls-73 {
        fill: #173038;
      }

      .cls-74 {
        fill: #2a4a54;
      }

      .cls-75 {
        fill: #213e47;
      }

      .cls-76 {
        fill: #061a1f;
      }

      .cls-77 {
        clip-path: url(#clippath-3);
      }

      .cls-78 {
        fill: #c9e6f6;
      }

      .cls-79 {
        fill: #19323b;
      }

      .cls-80 {
        fill: #c5e4f5;
      }

      .cls-81 {
        fill: #03151b;
      }

      .cls-82 {
        fill: #dbeef9;
      }

      .cls-83 {
        fill: #d6ecf9;
      }

      .cls-84 {
        fill: #85c6e9;
      }

      .cls-85 {
        fill: #cce7f7;
      }

      .cls-86 {
        fill: #d7edf9;
      }

      .cls-87 {
        fill: #2b4b55;
      }

      .cls-88 {
        fill: #1c3740;
      }

      .cls-89 {
        fill: #ddeffa;
      }

      .cls-90 {
        fill: #25434d;
      }

      .cls-91 {
        fill: #274650;
      }

      .cls-92 {
        fill: #d5ecf8;
      }

      .cls-93 {
        fill: #9bd0ee;
      }

      .cls-94 {
        fill: #b2dbf2;
      }

      .cls-95 {
        fill: #73bde6;
      }

      .cls-96 {
        fill: #284651;
      }

      .cls-97 {
        fill: #294853;
      }

      .cls-98 {
        fill: #def0fa;
      }

      .cls-99 {
        fill: #c2e3f5;
      }

      .cls-100 {
        fill: #223f49;
      }

      .cls-101 {
        fill: #1f3a44;
      }

      .cls-102 {
        fill: #284751;
      }
    </style>
    <clipPath id="clippath">
      <path class="cls-34" d="M335.23,137.5c9.42-43.64-13.67-85.96-59.71-90.27-18.43-1.73-38.94-.41-58.19,1.48-9.9,.97-19.41,1.99-28.39,2.7-33.55,2.64-71.33,2.66-102.54,17.77,1.06-4.59,3.07-8.65,6.09-12.22,5.86-6.94,14.49-11.43,24.49-14.29,20.26-5.8,44.95-3.04,73.26-7.2,7.18-1.05,14.89-2.54,22.83-4.95C284,9.01,371.62,0,353.91,94.92c-2.52,13.51-10.52,28.96-18.69,42.58Z"/>
    </clipPath>
    <clipPath id="clippath-1">
      <path class="cls-34" d="M213.69,220.55c-28.48,28.8-70.22,25.42-98.4-1.65-7.95-7.64-17.33-16.86-25.03-27.12C71.56,166.85,0,68.56,31.4,43.15c2.49-2.02,7.25-3.13,11.93-3.95-6.34,13.58,3.1,38.01,24.65,68.93,10.63,15.24,24.25,31.69,40.58,45.88,8.4,7.3,17.23,13.42,26.02,18.17,49.08,26.52,101.94-5.08,130.04-47.01-1.49,10.93-4.91,22.83-10.1,34.97-10.1,23.61-26.09,45.51-40.83,60.41Z"/>
    </clipPath>
    <clipPath id="clippath-2">
      <path class="cls-34" d="M116.98,42.67c-9.99,2.86-18.62,7.35-24.49,14.29-3.02,3.57-5.25,7.78-6.09,12.22-6.61,34.97,25.86,77.51,48.18,103.01-8.91-4.71-17.62-10.87-26.02-18.17-16.32-14.19-29.95-30.64-40.58-45.88-21.55-30.91-30.99-55.35-24.65-68.93,1.61-3.45,4.31-6.65,7.88-8.66,33.97-19.1,79.53,1.66,116.76,4.94,7.06,.62,14.65,.41,22.26-.01-28.31,4.16-53,1.4-73.26,7.2Z"/>
    </clipPath>
    <clipPath id="clippath-3">
      <path class="cls-34" d="M138.67,251.56c-8.26-10.38-16.25-21.51-23.38-32.66,28.21,28.79,69.92,30.45,98.4,1.65,14.74-14.9,30.73-36.8,40.83-60.41,5.19-12.14,8.41-24.32,10.1-34.97,7.8-49.03-33.83-70.89-75.68-73.76,9.05-.79,18.49-1.73,28.39-2.7,19.24-1.89,39.76-3.21,58.19-1.48,46.04,4.31,68.04,47.35,59.71,90.27-2.76,14.19-7.14,31.1-14.39,46.5-36.36,77.21-107.82,160.96-182.16,67.55Z"/>
    </clipPath>
  </defs>
  <g>
    <g>
      <g class="cls-70">
        <rect class="cls-13" x="86.4" width="124.3" height="137.5"/>
        <rect class="cls-13" x="210.7" width="1.3" height="137.5"/>
        <rect class="cls-95" x="212" width="1.3" height="137.5"/>
        <rect class="cls-7" x="213.3" width="1.3" height="137.5"/>
        <rect class="cls-49" x="214.6" width="1.3" height="137.5"/>
        <rect class="cls-5" x="215.9" width="1.3" height="137.5"/>
        <rect class="cls-84" x="217.2" width="1.3" height="137.5"/>
        <rect class="cls-69" x="218.5" width="1.3" height="137.5"/>
        <rect class="cls-54" x="219.8" width="1.3" height="137.5"/>
        <rect class="cls-27" x="221.1" width="1.3" height="137.5"/>
        <rect class="cls-3" x="222.39" width="1.3" height="137.5"/>
        <rect class="cls-37" x="223.69" width="1.3" height="137.5"/>
        <rect class="cls-93" x="224.99" width="1.3" height="137.5"/>
        <rect class="cls-42" x="226.29" width="1.3" height="137.5"/>
        <rect class="cls-36" x="227.59" width="1.3" height="137.5"/>
        <rect class="cls-67" x="228.89" width="1.3" height="137.5"/>
        <rect class="cls-39" x="230.19" width="1.3" height="137.5"/>
        <rect class="cls-35" x="231.49" width="1.3" height="137.5"/>
        <rect class="cls-14" x="232.79" width="1.3" height="137.5"/>
        <rect class="cls-18" x="234.09" width="1.3" height="137.5"/>
        <rect class="cls-94" x="235.39" width="1.3" height="137.5"/>
        <rect class="cls-61" x="236.69" width="1.3" height="137.5"/>
        <rect class="cls-4" x="237.99" width="1.3" height="137.5"/>
        <rect class="cls-63" x="239.29" width="1.3" height="137.5"/>
        <rect class="cls-71" x="240.59" width="1.3" height="137.5"/>
        <rect class="cls-12" x="241.88" width="1.3" height="137.5"/>
        <rect class="cls-48" x="243.18" width="1.3" height="137.5"/>
        <rect class="cls-29" x="244.48" width="1.3" height="137.5"/>
        <rect class="cls-99" x="245.78" width="1.3" height="137.5"/>
        <rect class="cls-58" x="247.08" width="1.3" height="137.5"/>
        <rect class="cls-80" x="248.38" width="1.3" height="137.5"/>
        <rect class="cls-6" x="249.68" width="1.3" height="137.5"/>
        <rect class="cls-15" x="250.98" width="1.3" height="137.5"/>
        <rect class="cls-78" x="252.28" width="1.3" height="137.5"/>
        <rect class="cls-11" x="253.58" width="1.3" height="137.5"/>
        <rect class="cls-85" x="254.88" width="1.3" height="137.5"/>
        <rect class="cls-2" x="256.18" width="1.3" height="137.5"/>
        <rect class="cls-52" x="257.48" width="1.3" height="137.5"/>
        <rect class="cls-72" x="258.78" width="1.3" height="137.5"/>
        <rect class="cls-46" x="260.07" width="1.3" height="137.5"/>
        <rect class="cls-23" x="261.37" width="1.3" height="137.5"/>
        <rect class="cls-1" x="262.67" width="1.3" height="137.5"/>
        <rect class="cls-56" x="263.97" width="1.3" height="137.5"/>
        <rect class="cls-56" x="265.27" width="1.3" height="137.5"/>
        <rect class="cls-66" x="266.57" width="1.3" height="137.5"/>
        <rect class="cls-92" x="267.87" width="1.3" height="137.5"/>
        <rect class="cls-26" x="269.17" width="1.3" height="137.5"/>
        <rect class="cls-83" x="270.47" width="1.3" height="137.5"/>
        <rect class="cls-86" x="271.77" width="1.3" height="137.5"/>
        <rect class="cls-86" x="273.07" width="1.3" height="137.5"/>
        <rect class="cls-68" x="274.37" width="1.3" height="137.5"/>
        <rect class="cls-68" x="275.67" width="1.3" height="137.5"/>
        <rect class="cls-9" x="276.97" width="1.3" height="137.5"/>
        <rect class="cls-9" x="278.26" width="1.3" height="137.5"/>
        <rect class="cls-45" x="279.56" width="1.3" height="137.5"/>
        <rect class="cls-45" x="280.86" width="1.3" height="137.5"/>
        <rect class="cls-45" x="282.16" width="1.3" height="137.5"/>
        <rect class="cls-82" x="283.46" width="1.3" height="137.5"/>
        <rect class="cls-8" x="284.76" width="1.3" height="137.5"/>
        <rect class="cls-8" x="286.06" width="1.3" height="137.5"/>
        <rect class="cls-62" x="287.36" width="1.3" height="137.5"/>
        <rect class="cls-57" x="288.66" width="1.3" height="137.5"/>
        <rect class="cls-57" x="289.96" width="1.3" height="137.5"/>
        <rect class="cls-57" x="291.26" width="1.3" height="137.5"/>
        <rect class="cls-57" x="292.56" width="1.3" height="137.5"/>
        <rect class="cls-57" x="293.86" width="1.3" height="137.5"/>
        <rect class="cls-89" x="295.16" width="1.3" height="137.5"/>
        <rect class="cls-89" x="296.46" width="1.3" height="137.5"/>
        <rect class="cls-89" x="297.75" width="1.3" height="137.5"/>
        <rect class="cls-21" x="299.05" width="1.3" height="137.5"/>
        <rect class="cls-21" x="300.35" width="1.3" height="137.5"/>
        <rect class="cls-21" x="301.65" width="1.3" height="137.5"/>
        <rect class="cls-21" x="302.95" width="1.3" height="137.5"/>
        <rect class="cls-21" x="304.25" width="1.3" height="137.5"/>
        <rect class="cls-21" x="305.55" width="1.3" height="137.5"/>
        <rect class="cls-98" x="306.85" width="1.3" height="137.5"/>
        <rect class="cls-98" x="308.15" width="1.3" height="137.5"/>
        <rect class="cls-98" x="309.45" width="1.3" height="137.5"/>
        <rect class="cls-98" x="310.75" width="1.3" height="137.5"/>
        <rect class="cls-98" x="312.05" width="1.3" height="137.5"/>
        <rect class="cls-98" x="313.35" width="1.3" height="137.5"/>
        <rect class="cls-98" x="314.65" width="1.3" height="137.5"/>
        <rect class="cls-98" x="315.94" width="1.3" height="137.5"/>
        <rect class="cls-98" x="317.24" width="1.3" height="137.5"/>
        <rect class="cls-98" x="318.54" width="1.3" height="137.5"/>
        <rect class="cls-98" x="319.84" width="1.3" height="137.5"/>
        <rect class="cls-98" x="321.14" width="1.3" height="137.5"/>
        <rect class="cls-98" x="322.44" width="1.3" height="137.5"/>
        <rect class="cls-98" x="323.74" width="1.3" height="137.5"/>
        <rect class="cls-98" x="325.04" width="1.3" height="137.5"/>
        <rect class="cls-98" x="326.34" width="1.3" height="137.5"/>
        <rect class="cls-98" x="327.64" width="1.3" height="137.5"/>
        <rect class="cls-98" x="328.94" width="1.3" height="137.5"/>
        <rect class="cls-98" x="330.24" width="1.3" height="137.5"/>
        <rect class="cls-98" x="331.54" width="1.3" height="137.5"/>
        <rect class="cls-98" x="332.84" width="1.3" height="137.5"/>
        <rect class="cls-98" x="334.13" width="1.3" height="137.5"/>
        <rect class="cls-98" x="335.43" width="1.3" height="137.5"/>
        <rect class="cls-98" x="336.73" width="1.3" height="137.5"/>
        <rect class="cls-98" x="338.03" width="1.3" height="137.5"/>
        <rect class="cls-98" x="339.33" width="1.3" height="137.5"/>
        <rect class="cls-98" x="340.63" width="1.3" height="137.5"/>
        <rect class="cls-98" x="341.93" width="1.3" height="137.5"/>
        <rect class="cls-98" x="343.23" width="1.3" height="137.5"/>
        <rect class="cls-98" x="344.53" width="1.3" height="137.5"/>
        <rect class="cls-98" x="345.83" width="1.3" height="137.5"/>
        <rect class="cls-98" x="347.13" width="1.3" height="137.5"/>
        <rect class="cls-98" x="348.43" width="1.3" height="137.5"/>
        <rect class="cls-98" x="349.73" width="1.3" height="137.5"/>
        <rect class="cls-98" x="351.03" width="1.3" height="137.5"/>
        <rect class="cls-98" x="352.33" width="1.3" height="137.5"/>
        <rect class="cls-98" x="353.62" width="1.3" height="137.5"/>
        <rect class="cls-98" x="354.92" width="1.3" height="137.5"/>
        <rect class="cls-98" x="356.22" width="15.4" height="137.5"/>
      </g>
      <path class="cls-19" d="M335.66,137.75l-.92-.36c5.04-23.35,.76-46.52-11.75-63.58-11.14-15.2-27.57-24.22-47.52-26.09-19.48-1.83-41.28-.17-58.09,1.48-2.53,.25-5.04,.5-7.52,.75-7.3,.73-14.19,1.42-20.88,1.95-5.29,.42-10.81,.78-16.14,1.12-29.51,1.92-60.02,3.91-86.22,16.6l-.71-.56c1.08-4.65,3.16-8.83,6.19-12.43,5.45-6.45,13.77-11.31,24.73-14.45,11.48-3.29,24.59-3.85,38.48-4.44,11.08-.47,22.53-.96,34.85-2.77,8.48-1.24,15.92-2.86,22.76-4.93,43.45-13.18,100.93-23.79,128.03,.47,14.49,12.97,19.01,34.67,13.45,64.49-2.09,11.21-8.22,25.19-18.75,42.75Zm-78.77-91.83c6.3,0,12.6,.23,18.68,.8,20.24,1.9,36.92,11.06,48.23,26.49,12.16,16.59,16.65,38.86,12.49,61.5,9.55-16.28,15.16-29.35,17.13-39.9,5.5-29.45,1.08-50.84-13.13-63.57-26.75-23.96-83.87-13.36-127.07-.26-6.89,2.09-14.38,3.71-22.91,4.96-12.37,1.82-23.85,2.31-34.95,2.78-13.82,.59-26.88,1.15-38.25,4.4-10.76,3.08-18.92,7.83-24.24,14.13-2.75,3.25-4.63,6.85-5.73,10.98,26.16-12.36,56.39-14.33,85.63-16.24,5.33-.35,10.84-.71,16.13-1.12,6.67-.53,13.56-1.22,20.85-1.95,2.48-.25,4.99-.5,7.52-.75,11.62-1.14,25.62-2.28,39.6-2.28Z"/>
    </g>
    <g>
      <g class="cls-43">
        <rect class="cls-13" y="39.2" width="134.6" height="210.14"/>
        <rect class="cls-13" x="134.6" y="39.2" width="1.16" height="210.14"/>
        <rect class="cls-95" x="135.76" y="39.2" width="1.16" height="210.14"/>
        <rect class="cls-7" x="136.92" y="39.2" width="1.16" height="210.14"/>
        <rect class="cls-49" x="138.08" y="39.2" width="1.16" height="210.14"/>
        <rect class="cls-5" x="139.24" y="39.2" width="1.16" height="210.14"/>
        <rect class="cls-84" x="140.41" y="39.2" width="1.16" height="210.14"/>
        <rect class="cls-69" x="141.57" y="39.2" width="1.16" height="210.14"/>
        <rect class="cls-54" x="142.73" y="39.2" width="1.16" height="210.14"/>
        <rect class="cls-27" x="143.89" y="39.2" width="1.16" height="210.14"/>
        <rect class="cls-3" x="145.05" y="39.2" width="1.16" height="210.14"/>
        <rect class="cls-37" x="146.21" y="39.2" width="1.16" height="210.14"/>
        <rect class="cls-93" x="147.37" y="39.2" width="1.16" height="210.14"/>
        <rect class="cls-42" x="148.53" y="39.2" width="1.16" height="210.14"/>
        <rect class="cls-36" x="149.69" y="39.2" width="1.16" height="210.14"/>
        <rect class="cls-67" x="150.85" y="39.2" width="1.16" height="210.14"/>
        <rect class="cls-39" x="152.01" y="39.2" width="1.16" height="210.14"/>
        <rect class="cls-35" x="153.18" y="39.2" width="1.16" height="210.14"/>
        <rect class="cls-14" x="154.34" y="39.2" width="1.16" height="210.14"/>
        <rect class="cls-18" x="155.5" y="39.2" width="1.16" height="210.14"/>
        <rect class="cls-94" x="156.66" y="39.2" width="1.16" height="210.14"/>
        <rect class="cls-61" x="157.82" y="39.2" width="1.16" height="210.14"/>
        <rect class="cls-4" x="158.98" y="39.2" width="1.16" height="210.14"/>
        <rect class="cls-63" x="160.14" y="39.2" width="1.16" height="210.14"/>
        <rect class="cls-71" x="161.3" y="39.2" width="1.16" height="210.14"/>
        <rect class="cls-12" x="162.46" y="39.2" width="1.16" height="210.14"/>
        <rect class="cls-48" x="163.62" y="39.2" width="1.16" height="210.14"/>
        <rect class="cls-29" x="164.78" y="39.2" width="1.16" height="210.14"/>
        <rect class="cls-99" x="165.95" y="39.2" width="1.16" height="210.14"/>
        <rect class="cls-58" x="167.11" y="39.2" width="1.16" height="210.14"/>
        <rect class="cls-80" x="168.27" y="39.2" width="1.16" height="210.14"/>
        <rect class="cls-6" x="169.43" y="39.2" width="1.16" height="210.14"/>
        <rect class="cls-15" x="170.59" y="39.2" width="1.16" height="210.14"/>
        <rect class="cls-78" x="171.75" y="39.2" width="1.16" height="210.14"/>
        <rect class="cls-11" x="172.91" y="39.2" width="1.16" height="210.14"/>
        <rect class="cls-85" x="174.07" y="39.2" width="1.16" height="210.14"/>
        <rect class="cls-2" x="175.23" y="39.2" width="1.16" height="210.14"/>
        <rect class="cls-52" x="176.39" y="39.2" width="1.16" height="210.14"/>
        <rect class="cls-72" x="177.55" y="39.2" width="1.16" height="210.14"/>
        <rect class="cls-46" x="178.72" y="39.2" width="1.16" height="210.14"/>
        <rect class="cls-23" x="179.88" y="39.2" width="1.16" height="210.14"/>
        <rect class="cls-1" x="181.04" y="39.2" width="1.16" height="210.14"/>
        <rect class="cls-56" x="182.2" y="39.2" width="1.16" height="210.14"/>
        <rect class="cls-56" x="183.36" y="39.2" width="1.16" height="210.14"/>
        <rect class="cls-66" x="184.52" y="39.2" width="1.16" height="210.14"/>
        <rect class="cls-92" x="185.68" y="39.2" width="1.16" height="210.14"/>
        <rect class="cls-26" x="186.84" y="39.2" width="1.16" height="210.14"/>
        <rect class="cls-83" x="188" y="39.2" width="1.16" height="210.14"/>
        <rect class="cls-86" x="189.16" y="39.2" width="1.16" height="210.14"/>
        <rect class="cls-86" x="190.32" y="39.2" width="1.16" height="210.14"/>
        <rect class="cls-68" x="191.49" y="39.2" width="1.16" height="210.14"/>
        <rect class="cls-68" x="192.65" y="39.2" width="1.16" height="210.14"/>
        <rect class="cls-9" x="193.81" y="39.2" width="1.16" height="210.14"/>
        <rect class="cls-9" x="194.97" y="39.2" width="1.16" height="210.14"/>
        <rect class="cls-45" x="196.13" y="39.2" width="1.16" height="210.14"/>
        <rect class="cls-45" x="197.29" y="39.2" width="1.16" height="210.14"/>
        <rect class="cls-45" x="198.45" y="39.2" width="1.16" height="210.14"/>
        <rect class="cls-82" x="199.61" y="39.2" width="1.16" height="210.14"/>
        <rect class="cls-8" x="200.77" y="39.2" width="1.16" height="210.14"/>
        <rect class="cls-8" x="201.93" y="39.2" width="1.16" height="210.14"/>
        <rect class="cls-62" x="203.09" y="39.2" width="1.16" height="210.14"/>
        <rect class="cls-57" x="204.26" y="39.2" width="1.16" height="210.14"/>
        <rect class="cls-57" x="205.42" y="39.2" width="1.16" height="210.14"/>
        <rect class="cls-57" x="206.58" y="39.2" width="1.16" height="210.14"/>
        <rect class="cls-57" x="207.74" y="39.2" width="1.16" height="210.14"/>
        <rect class="cls-57" x="208.9" y="39.2" width="1.16" height="210.14"/>
        <rect class="cls-89" x="210.06" y="39.2" width="1.16" height="210.14"/>
        <rect class="cls-89" x="211.22" y="39.2" width="1.16" height="210.14"/>
        <rect class="cls-89" x="212.38" y="39.2" width="1.16" height="210.14"/>
        <rect class="cls-21" x="213.54" y="39.2" width="1.16" height="210.14"/>
        <rect class="cls-21" x="214.7" y="39.2" width="1.16" height="210.14"/>
        <rect class="cls-21" x="215.86" y="39.2" width="1.16" height="210.14"/>
        <rect class="cls-21" x="217.03" y="39.2" width="1.16" height="210.14"/>
        <rect class="cls-21" x="218.19" y="39.2" width="1.16" height="210.14"/>
        <rect class="cls-21" x="219.35" y="39.2" width="1.16" height="210.14"/>
        <rect class="cls-98" x="220.51" y="39.2" width="1.16" height="210.14"/>
        <rect class="cls-98" x="221.67" y="39.2" width="1.16" height="210.14"/>
        <rect class="cls-98" x="222.83" y="39.2" width="1.16" height="210.14"/>
        <rect class="cls-98" x="223.99" y="39.2" width="1.16" height="210.14"/>
        <rect class="cls-98" x="225.15" y="39.2" width="1.16" height="210.14"/>
        <rect class="cls-98" x="226.31" y="39.2" width="1.16" height="210.14"/>
        <rect class="cls-98" x="227.47" y="39.2" width="1.16" height="210.14"/>
        <rect class="cls-98" x="228.63" y="39.2" width="1.16" height="210.14"/>
        <rect class="cls-98" x="229.8" y="39.2" width="1.16" height="210.14"/>
        <rect class="cls-98" x="230.96" y="39.2" width="1.16" height="210.14"/>
        <rect class="cls-98" x="232.12" y="39.2" width="1.16" height="210.14"/>
        <rect class="cls-98" x="233.28" y="39.2" width="1.16" height="210.14"/>
        <rect class="cls-98" x="234.44" y="39.2" width="1.16" height="210.14"/>
        <rect class="cls-98" x="235.6" y="39.2" width="1.16" height="210.14"/>
        <rect class="cls-98" x="236.76" y="39.2" width="1.16" height="210.14"/>
        <rect class="cls-98" x="237.92" y="39.2" width="1.16" height="210.14"/>
        <rect class="cls-98" x="239.08" y="39.2" width="1.16" height="210.14"/>
        <rect class="cls-98" x="240.24" y="39.2" width="1.16" height="210.14"/>
        <rect class="cls-98" x="241.4" y="39.2" width="1.16" height="210.14"/>
        <rect class="cls-98" x="242.57" y="39.2" width="1.16" height="210.14"/>
        <rect class="cls-98" x="243.73" y="39.2" width="1.16" height="210.14"/>
        <rect class="cls-98" x="244.89" y="39.2" width="1.16" height="210.14"/>
        <rect class="cls-98" x="246.05" y="39.2" width="1.16" height="210.14"/>
        <rect class="cls-98" x="247.21" y="39.2" width="1.16" height="210.14"/>
        <rect class="cls-98" x="248.37" y="39.2" width="1.16" height="210.14"/>
        <rect class="cls-98" x="249.53" y="39.2" width="1.16" height="210.14"/>
        <rect class="cls-98" x="250.69" y="39.2" width="1.16" height="210.14"/>
        <rect class="cls-98" x="251.85" y="39.2" width="1.16" height="210.14"/>
        <rect class="cls-98" x="253.01" y="39.2" width="1.16" height="210.14"/>
        <rect class="cls-98" x="254.17" y="39.2" width="1.16" height="210.14"/>
        <rect class="cls-98" x="255.34" y="39.2" width="1.16" height="210.14"/>
        <rect class="cls-98" x="256.5" y="39.2" width="1.16" height="210.14"/>
        <rect class="cls-98" x="257.66" y="39.2" width="1.16" height="210.14"/>
        <rect class="cls-98" x="258.82" y="39.2" width="1.16" height="210.14"/>
        <rect class="cls-98" x="259.98" y="39.2" width="1.16" height="210.14"/>
        <rect class="cls-98" x="261.14" y="39.2" width="1.16" height="210.14"/>
        <rect class="cls-98" x="262.3" y="39.2" width="1.16" height="210.14"/>
        <rect class="cls-98" x="263.46" y="39.2" width="1.16" height="210.14"/>
      </g>
      <path class="cls-19" d="M166.7,241.22c-.78,0-1.56-.01-2.34-.04-17.82-.64-35.37-8.42-49.42-21.92-8.12-7.8-17.43-16.98-25.08-27.18C62.22,155.25,1.17,66.97,31.09,42.77c2.69-2.18,7.91-3.31,12.16-4.05l.54,.7c-6.06,12.97,2.45,36.63,24.61,68.43,12.43,17.83,26.05,33.23,40.49,45.79,8.27,7.19,16.99,13.28,25.93,18.11,49.43,26.71,101.72-5.56,129.39-46.85l.91,.35c-1.52,11.12-4.93,22.93-10.14,35.1-9.19,21.48-24.1,43.55-40.93,60.56h0c-13.01,13.16-29.75,20.32-47.35,20.32ZM42.5,39.86c-3.94,.72-8.46,1.79-10.79,3.68-13.13,10.63-9.51,35.48,10.77,73.87,14.54,27.53,34.22,55.47,48.18,74.07,7.61,10.14,16.88,19.28,24.97,27.06,29.52,28.36,70.61,29.05,97.7,1.66l.36,.35-.36-.35c16.74-16.93,31.58-38.89,40.72-60.25,4.84-11.31,8.11-22.3,9.75-32.7-14.69,21.22-35.05,38.49-56.15,47.56-25.25,10.85-50.6,10.1-73.33-2.18-9-4.86-17.78-11-26.11-18.23-14.5-12.61-28.18-28.08-40.66-45.97-21.9-31.42-30.54-55.08-25.07-68.56Z"/>
    </g>
    <g>
      <g class="cls-17">
        <polygon class="cls-55" points="94.7 172.18 83.62 151.35 190.24 94.61 190.24 172.18 94.7 172.18"/>
        <polygon class="cls-55" points="83.62 151.35 83.09 150.36 190.24 93.34 190.24 94.61 83.62 151.35"/>
        <polygon class="cls-55" points="83.09 150.36 82.56 149.37 190.24 92.07 190.24 93.34 83.09 150.36"/>
        <polygon class="cls-55" points="82.56 149.37 82.04 148.38 190.24 90.8 190.24 92.07 82.56 149.37"/>
        <polygon class="cls-55" points="82.04 148.38 81.51 147.39 190.24 89.54 190.24 90.8 82.04 148.38"/>
        <polygon class="cls-55" points="81.51 147.39 80.98 146.4 190.24 88.27 190.24 89.54 81.51 147.39"/>
        <polygon class="cls-55" points="80.98 146.4 80.46 145.41 190.24 87 190.24 88.27 80.98 146.4"/>
        <polygon class="cls-55" points="80.46 145.41 79.93 144.42 190.24 85.73 190.24 87 80.46 145.41"/>
        <polygon class="cls-55" points="79.93 144.42 79.4 143.43 190.24 84.46 190.24 85.73 79.93 144.42"/>
        <polygon class="cls-55" points="79.4 143.43 78.88 142.44 190.24 83.19 190.24 84.46 79.4 143.43"/>
        <polygon class="cls-55" points="78.88 142.44 78.35 141.45 190.24 81.92 190.24 83.19 78.88 142.44"/>
        <polygon class="cls-55" points="78.35 141.45 77.82 140.46 190.24 80.65 190.24 81.92 78.35 141.45"/>
        <polygon class="cls-55" points="77.82 140.46 77.3 139.47 190.24 79.38 190.24 80.65 77.82 140.46"/>
        <polygon class="cls-55" points="77.3 139.47 76.77 138.48 190.24 78.11 190.24 79.38 77.3 139.47"/>
        <polygon class="cls-55" points="76.77 138.48 76.24 137.49 190.24 76.84 190.24 78.11 76.77 138.48"/>
        <polygon class="cls-55" points="76.24 137.49 75.72 136.5 190.24 75.57 190.24 76.84 76.24 137.49"/>
        <polygon class="cls-55" points="75.72 136.5 75.19 135.51 190.24 74.3 190.24 75.57 75.72 136.5"/>
        <polygon class="cls-55" points="75.19 135.51 74.66 134.52 190.24 73.03 190.24 74.3 75.19 135.51"/>
        <polygon class="cls-55" points="74.66 134.52 74.14 133.53 190.24 71.76 190.24 73.03 74.66 134.52"/>
        <polygon class="cls-55" points="74.14 133.53 73.61 132.54 190.24 70.49 190.24 71.76 74.14 133.53"/>
        <polygon class="cls-55" points="73.61 132.54 73.09 131.55 190.24 69.22 190.24 70.49 73.61 132.54"/>
        <polygon class="cls-55" points="73.09 131.55 72.56 130.56 190.24 67.95 190.24 69.22 73.09 131.55"/>
        <polygon class="cls-55" points="72.56 130.56 72.03 129.57 190.24 66.68 190.24 67.95 72.56 130.56"/>
        <polygon class="cls-55" points="72.03 129.57 71.51 128.58 190.24 65.41 190.24 66.68 72.03 129.57"/>
        <polygon class="cls-55" points="71.51 128.58 70.98 127.59 190.24 64.14 190.24 65.41 71.51 128.58"/>
        <polygon class="cls-87" points="70.98 127.59 70.45 126.61 190.24 62.87 190.24 64.14 70.98 127.59"/>
        <polygon class="cls-53" points="70.45 126.61 69.93 125.62 190.24 61.6 190.24 62.87 70.45 126.61"/>
        <polygon class="cls-30" points="69.93 125.62 69.4 124.63 190.24 60.33 190.24 61.6 69.93 125.62"/>
        <polygon class="cls-30" points="69.4 124.63 68.87 123.64 190.24 59.06 190.24 60.33 69.4 124.63"/>
        <polygon class="cls-30" points="68.87 123.64 68.35 122.65 190.24 57.79 190.24 59.06 68.87 123.64"/>
        <polygon class="cls-30" points="68.35 122.65 67.82 121.66 190.24 56.52 190.24 57.79 68.35 122.65"/>
        <polygon class="cls-74" points="67.82 121.66 67.29 120.67 190.24 55.25 190.24 56.52 67.82 121.66"/>
        <polygon class="cls-50" points="67.29 120.67 66.77 119.68 190.24 53.98 190.24 55.25 67.29 120.67"/>
        <polygon class="cls-50" points="66.77 119.68 66.24 118.69 190.24 52.71 190.24 53.98 66.77 119.68"/>
        <polygon class="cls-65" points="66.24 118.69 65.71 117.7 190.24 51.44 190.24 52.71 66.24 118.69"/>
        <polygon class="cls-97" points="65.71 117.7 65.19 116.71 190.24 50.17 190.24 51.44 65.71 117.7"/>
        <polygon class="cls-97" points="65.19 116.71 64.66 115.72 190.24 48.9 190.24 50.17 65.19 116.71"/>
        <polygon class="cls-24" points="64.66 115.72 64.13 114.73 190.24 47.63 190.24 48.9 64.66 115.72"/>
        <polygon class="cls-102" points="64.13 114.73 63.61 113.74 190.24 46.36 190.24 47.63 64.13 114.73"/>
        <polygon class="cls-96" points="63.61 113.74 63.08 112.75 190.24 45.09 190.24 46.36 63.61 113.74"/>
        <polygon class="cls-91" points="63.08 112.75 62.55 111.76 190.24 43.82 190.24 45.09 63.08 112.75"/>
        <polygon class="cls-20" points="62.55 111.76 62.03 110.77 190.24 42.55 190.24 43.82 62.55 111.76"/>
        <polygon class="cls-41" points="62.03 110.77 61.5 109.78 190.24 41.28 190.24 42.55 62.03 110.77"/>
        <polygon class="cls-90" points="61.5 109.78 60.97 108.79 190.24 40.01 190.24 41.28 61.5 109.78"/>
        <polygon class="cls-38" points="60.97 108.79 60.45 107.8 190.24 38.74 190.24 40.01 60.97 108.79"/>
        <polygon class="cls-59" points="60.45 107.8 59.92 106.81 190.24 37.47 190.24 38.74 60.45 107.8"/>
        <polygon class="cls-28" points="59.92 106.81 59.39 105.82 190.24 36.2 190.24 37.47 59.92 106.81"/>
        <polygon class="cls-100" points="59.39 105.82 58.87 104.83 190.24 34.93 190.24 36.2 59.39 105.82"/>
        <polygon class="cls-75" points="58.87 104.83 58.34 103.84 190.24 33.66 190.24 34.93 58.87 104.83"/>
        <polygon class="cls-25" points="58.34 103.84 57.81 102.85 190.24 32.39 190.24 33.66 58.34 103.84"/>
        <polygon class="cls-101" points="57.81 102.85 57.29 101.86 190.2 31.14 190.24 31.21 190.24 32.39 57.81 102.85"/>
        <rect class="cls-60" x="48.2" y="65.45" width="150.56" height="1.12" transform="translate(-16.54 65.74) rotate(-28.02)"/>
        <rect class="cls-88" x="47.68" y="64.46" width="150.56" height="1.12" transform="translate(-16.13 65.38) rotate(-28.02)"/>
        <rect class="cls-44" x="47.15" y="63.47" width="150.56" height="1.12" transform="translate(-15.73 65.01) rotate(-28.02)"/>
        <rect class="cls-79" x="46.62" y="62.48" width="150.56" height="1.12" transform="translate(-15.33 64.65) rotate(-28.02)"/>
        <rect class="cls-73" x="46.1" y="61.49" width="150.56" height="1.12" transform="translate(-14.92 64.29) rotate(-28.02)"/>
        <rect class="cls-40" x="45.57" y="60.5" width="150.56" height="1.12" transform="translate(-14.52 63.92) rotate(-28.02)"/>
        <rect class="cls-47" x="45.04" y="59.51" width="150.56" height="1.12" transform="translate(-14.12 63.56) rotate(-28.02)"/>
        <rect class="cls-64" x="44.52" y="58.52" width="150.56" height="1.12" transform="translate(-13.71 63.2) rotate(-28.02)"/>
        <rect class="cls-51" x="43.99" y="57.53" width="150.56" height="1.12" transform="translate(-13.31 62.83) rotate(-28.02)"/>
        <rect class="cls-10" x="43.46" y="56.54" width="150.56" height="1.12" transform="translate(-12.91 62.47) rotate(-28.02)"/>
        <rect class="cls-22" x="42.94" y="55.55" width="150.56" height="1.12" transform="translate(-12.5 62.11) rotate(-28.02)"/>
        <rect class="cls-76" x="42.41" y="54.56" width="150.56" height="1.12" transform="translate(-12.1 61.74) rotate(-28.02)"/>
        <rect class="cls-81" x="41.88" y="53.57" width="150.56" height="1.12" transform="translate(-11.7 61.38) rotate(-28.02)"/>
        <rect class="cls-16" x="41.36" y="52.58" width="150.56" height="1.12" transform="translate(-11.29 61.02) rotate(-28.02)"/>
        <polygon class="cls-16" points="49.92 88.01 36.99 63.72 36.99 11.45 179.72 11.45 182.83 17.29 49.92 88.01"/>
      </g>
      <path class="cls-16" d="M134.34,172.62c-8.7-4.6-17.48-10.74-26.11-18.24-14.51-12.62-28.19-28.08-40.66-45.97-22.38-32.1-30.91-56.11-24.69-69.42,1.77-3.79,4.64-6.95,8.09-8.88,24.08-13.54,53.72-7.23,82.39-1.13,12.18,2.59,23.68,5.04,34.67,6,7.5,.66,15.42,.36,22.19-.02l.1,.99c-12.37,1.82-23.85,2.31-34.95,2.78-13.82,.59-26.88,1.15-38.25,4.4h0c-10.76,3.08-18.92,7.83-24.24,14.13-3.13,3.7-5.2,7.85-5.98,11.99-4.92,26.01,11.25,60.53,48.06,102.59l-.61,.77ZM85.28,23.06c-11.99,0-23.44,2.09-33.82,7.92-3.26,1.83-5.99,4.83-7.67,8.43-6.06,12.97,2.45,36.64,24.61,68.43,12.42,17.82,26.05,33.23,40.49,45.79,7.77,6.75,15.66,12.38,23.49,16.78-35.73-41.35-51.36-75.44-46.47-101.33,.81-4.31,2.96-8.61,6.2-12.45,5.45-6.45,13.77-11.31,24.73-14.45h0c11.48-3.29,24.6-3.85,38.48-4.44,7.44-.32,15.06-.64,22.99-1.37-3.43,0-6.95-.09-10.37-.39-11.05-.97-22.58-3.42-34.79-6.02-16.04-3.41-32.4-6.89-47.87-6.89Z"/>
    </g>
    <g>
      <g class="cls-77">
        <polygon class="cls-55" points="270.98 45.5 115.29 121.42 115.29 45.5 270.98 45.5"/>
        <polygon class="cls-55" points="274.9 45.5 115.29 123.33 115.29 121.42 270.98 45.5 274.9 45.5"/>
        <polygon class="cls-55" points="278.81 45.5 115.29 125.24 115.29 123.33 274.9 45.5 278.81 45.5"/>
        <polygon class="cls-55" points="282.73 45.5 115.29 127.15 115.29 125.24 278.81 45.5 282.73 45.5"/>
        <polygon class="cls-55" points="286.64 45.5 115.29 129.06 115.29 127.15 282.73 45.5 286.64 45.5"/>
        <polygon class="cls-55" points="290.56 45.5 115.29 130.97 115.29 129.06 286.64 45.5 290.56 45.5"/>
        <polygon class="cls-55" points="294.47 45.5 115.29 132.88 115.29 130.97 290.56 45.5 294.47 45.5"/>
        <polygon class="cls-55" points="298.39 45.5 115.29 134.78 115.29 132.88 294.47 45.5 298.39 45.5"/>
        <polygon class="cls-55" points="302.3 45.5 115.29 136.69 115.29 134.78 298.39 45.5 302.3 45.5"/>
        <polygon class="cls-55" points="306.22 45.5 115.29 138.6 115.29 136.69 302.3 45.5 306.22 45.5"/>
        <polygon class="cls-55" points="310.13 45.5 115.29 140.51 115.29 138.6 306.22 45.5 310.13 45.5"/>
        <polygon class="cls-55" points="314.04 45.5 115.29 142.42 115.29 140.51 310.13 45.5 314.04 45.5"/>
        <polygon class="cls-55" points="317.96 45.5 115.29 144.33 115.29 142.42 314.04 45.5 317.96 45.5"/>
        <polygon class="cls-55" points="321.85 45.5 321.86 45.51 115.29 146.24 115.29 144.33 317.96 45.5 321.85 45.5"/>
        <polygon class="cls-55" points="321.86 45.51 322.61 47.05 115.29 148.15 115.29 146.24 321.86 45.51"/>
        <polygon class="cls-55" points="322.61 47.05 323.36 48.59 115.29 150.06 115.29 148.15 322.61 47.05"/>
        <polygon class="cls-55" points="323.36 48.59 324.11 50.13 115.29 151.96 115.29 150.06 323.36 48.59"/>
        <polygon class="cls-55" points="324.11 50.13 324.87 51.68 115.29 153.87 115.29 151.96 324.11 50.13"/>
        <polygon class="cls-55" points="324.87 51.68 325.62 53.22 115.29 155.78 115.29 153.87 324.87 51.68"/>
        <polygon class="cls-55" points="325.62 53.22 326.37 54.76 115.29 157.69 115.29 155.78 325.62 53.22"/>
        <polygon class="cls-55" points="326.37 54.76 327.12 56.3 115.29 159.6 115.29 157.69 326.37 54.76"/>
        <polygon class="cls-55" points="327.12 56.3 327.87 57.85 115.29 161.51 115.29 159.6 327.12 56.3"/>
        <polygon class="cls-55" points="327.87 57.85 328.63 59.39 115.29 163.42 115.29 161.51 327.87 57.85"/>
        <polygon class="cls-55" points="328.63 59.39 329.38 60.93 115.29 165.33 115.29 163.42 328.63 59.39"/>
        <polygon class="cls-55" points="329.38 60.93 330.13 62.47 115.29 167.23 115.29 165.33 329.38 60.93"/>
        <polygon class="cls-87" points="330.13 62.47 330.88 64.01 115.29 169.14 115.29 167.23 330.13 62.47"/>
        <polygon class="cls-53" points="330.88 64.01 331.63 65.56 115.29 171.05 115.29 169.14 330.88 64.01"/>
        <polygon class="cls-30" points="331.63 65.56 332.39 67.1 115.29 172.96 115.29 171.05 331.63 65.56"/>
        <polygon class="cls-30" points="332.39 67.1 333.14 68.64 115.29 174.87 115.29 172.96 332.39 67.1"/>
        <polygon class="cls-30" points="333.14 68.64 333.89 70.18 115.29 176.78 115.29 174.87 333.14 68.64"/>
        <polygon class="cls-30" points="333.89 70.18 334.64 71.72 115.29 178.69 115.29 176.78 333.89 70.18"/>
        <polygon class="cls-74" points="334.64 71.72 335.39 73.27 115.29 180.6 115.29 178.69 334.64 71.72"/>
        <polygon class="cls-50" points="335.39 73.27 336.15 74.81 115.29 182.51 115.29 180.6 335.39 73.27"/>
        <polygon class="cls-50" points="336.15 74.81 336.9 76.35 115.29 184.41 115.29 182.51 336.15 74.81"/>
        <polygon class="cls-65" points="336.9 76.35 337.65 77.89 115.29 186.32 115.29 184.41 336.9 76.35"/>
        <polygon class="cls-97" points="337.65 77.89 338.4 79.44 115.29 188.23 115.29 186.32 337.65 77.89"/>
        <polygon class="cls-97" points="338.4 79.44 339.15 80.98 115.29 190.14 115.29 188.23 338.4 79.44"/>
        <polygon class="cls-24" points="339.15 80.98 339.91 82.52 115.29 192.05 115.29 190.14 339.15 80.98"/>
        <polygon class="cls-102" points="339.91 82.52 340.66 84.06 115.29 193.96 115.29 192.05 339.91 82.52"/>
        <polygon class="cls-96" points="340.66 84.06 341.41 85.6 115.29 195.87 115.29 193.96 340.66 84.06"/>
        <polygon class="cls-91" points="341.41 85.6 342.16 87.15 115.29 197.78 115.29 195.87 341.41 85.6"/>
        <polygon class="cls-20" points="342.16 87.15 342.91 88.69 115.29 199.68 115.29 197.78 342.16 87.15"/>
        <polygon class="cls-41" points="342.91 88.69 343.56 90.01 343.56 90.28 115.29 201.59 115.29 199.68 342.91 88.69"/>
        <polygon class="cls-90" points="343.56 92.19 115.29 203.5 115.29 201.59 343.56 90.28 343.56 92.19"/>
        <polygon class="cls-38" points="343.56 94.1 115.29 205.41 115.29 203.5 343.56 92.19 343.56 94.1"/>
        <polygon class="cls-59" points="343.56 96.01 115.29 207.32 115.29 205.41 343.56 94.1 343.56 96.01"/>
        <polygon class="cls-28" points="343.56 97.92 115.29 209.23 115.29 207.32 343.56 96.01 343.56 97.92"/>
        <polygon class="cls-100" points="343.56 99.83 115.29 211.14 115.29 209.23 343.56 97.92 343.56 99.83"/>
        <polygon class="cls-75" points="343.56 101.73 115.29 213.05 115.29 211.14 343.56 99.83 343.56 101.73"/>
        <polygon class="cls-25" points="343.56 103.64 115.29 214.96 115.29 213.05 343.56 101.73 343.56 103.64"/>
        <polygon class="cls-101" points="343.56 105.55 115.29 216.86 115.29 214.96 343.56 103.64 343.56 105.55"/>
        <polygon class="cls-60" points="343.56 107.46 115.29 218.77 115.29 216.86 343.56 105.55 343.56 107.46"/>
        <polygon class="cls-88" points="343.56 109.37 115.29 220.68 115.29 218.77 343.56 107.46 343.56 109.37"/>
        <polygon class="cls-44" points="343.56 111.28 115.29 222.59 115.29 220.68 343.56 109.37 343.56 111.28"/>
        <polygon class="cls-79" points="343.56 113.19 115.7 224.3 115.29 223.46 115.29 222.59 343.56 111.28 343.56 113.19"/>
        <polygon class="cls-73" points="343.56 115.1 116.45 225.84 115.7 224.3 343.56 113.19 343.56 115.1"/>
        <polygon class="cls-40" points="343.56 117.01 117.2 227.38 116.45 225.84 343.56 115.1 343.56 117.01"/>
        <polygon class="cls-47" points="343.56 118.91 117.96 228.93 117.2 227.38 343.56 117.01 343.56 118.91"/>
        <polygon class="cls-64" points="343.56 120.82 118.71 230.47 117.96 228.93 343.56 118.91 343.56 120.82"/>
        <polygon class="cls-51" points="343.56 122.73 119.46 232.01 118.71 230.47 343.56 120.82 343.56 122.73"/>
        <polygon class="cls-10" points="343.56 124.64 120.21 233.55 119.46 232.01 343.56 122.73 343.56 124.64"/>
        <polygon class="cls-22" points="343.56 126.55 120.96 235.09 120.21 233.55 343.56 124.64 343.56 126.55"/>
        <polygon class="cls-76" points="343.56 128.46 121.72 236.64 120.96 235.09 343.56 126.55 343.56 128.46"/>
        <polygon class="cls-81" points="343.56 130.37 122.47 238.18 121.72 236.64 343.56 128.46 343.56 130.37"/>
        <polygon class="cls-16" points="343.56 132.28 123.22 239.72 122.47 238.18 343.56 130.37 343.56 132.28"/>
        <polygon class="cls-16" points="174.54 344.96 123.22 239.72 343.56 132.28 343.56 344.96 174.54 344.96"/>
      </g>
      <path class="cls-16" d="M207.08,293.33c-23.77,0-46.88-13.92-68.8-41.46h0c-8.44-10.61-16.32-21.61-23.41-32.7l.78-.62c14.04,14.33,31.84,22.24,50.11,22.29h.15c17.43,0,34.27-7.32,47.44-20.63,16.74-16.93,31.58-38.89,40.72-60.25,4.71-11.01,8.19-23.06,10.07-34.86,2.81-17.69-.66-32.81-10.32-44.95-12.72-15.99-36.38-26.28-64.9-28.23v-1c8.2-.72,16.67-1.55,25.64-2.43l2.74-.27c16.86-1.65,38.71-3.32,58.28-1.48,19.6,1.83,35.88,10.71,47.08,25.67,12.99,17.34,17.75,41.1,13.08,65.2-3.5,18.04-8.36,33.72-14.43,46.62-9.26,19.65-24.68,47.96-45.6,71.22-20.21,22.47-40.89,35.08-61.46,37.48-2.39,.28-4.77,.42-7.15,.42Zm-68.02-42.09c23.88,30.01,49.13,43.7,75.05,40.68,52.85-6.16,91.92-77.67,106.27-108.13,6.04-12.82,10.87-28.43,14.36-46.39,4.62-23.82-.08-47.29-12.9-64.41-11.03-14.72-27.06-23.46-46.37-25.27-19.48-1.83-41.28-.17-58.09,1.48l-2.74,.27c-6.95,.68-13.61,1.33-20.07,1.93,26.29,2.87,47.97,12.97,60.02,28.11,9.84,12.37,13.39,27.76,10.53,45.73-1.89,11.88-5.4,24.01-10.14,35.09-9.19,21.48-24.1,43.55-40.93,60.56-13.35,13.5-30.45,20.93-48.15,20.93h-.15c-17.19-.04-33.96-6.94-47.65-19.52,6.44,9.81,13.48,19.53,20.96,28.93Z"/>
    </g>
  </g>
  <g>
    <path class="cls-31" d="M465.06,203.41l-51.21-129.83h-25.05l65.3,166.02h21.69l50.95-122.65h-25.05l-36.64,86.46Zm118.02-83.33c-36.98,0-55.47,19.82-55.47,59.44s18.49,59.22,55.47,59.22,55.24-19.73,55.24-59.22-18.41-59.44-55.24-59.44Zm25.94,85.69c-4.92,6.58-13.57,9.87-25.94,9.87s-21.02-3.29-25.95-9.87c-4.03-5.39-6.04-14.13-6.04-26.25s2.01-20.86,6.04-26.24c4.92-6.73,13.57-10.1,25.95-10.1s21.02,3.36,25.94,10.1c4.03,5.38,6.04,14.13,6.04,26.24s-2.01,20.86-6.04,26.25Zm40.81,32.97h23.26V120.08h-23.26v118.66Zm0-142.06h23.26v-23.11h-23.26v23.11Zm91.6,23.39c-36.83,0-55.24,19.83-55.24,59.47v105.98h23.26v-46.79h31.99c36.98,0,55.47-19.73,55.47-59.22s-18.49-59.44-55.47-59.44Zm26.16,85.69c-5.07,6.58-13.79,9.87-26.16,9.87h-31.99v-36.12c0-12.11,2.02-20.86,6.05-26.24,4.91-6.73,13.56-10.1,25.94-10.1s21.09,3.36,26.16,10.1c4.02,5.38,6.03,14.13,6.03,26.24s-2.01,20.71-6.03,26.25Z"/>
    <path class="cls-33" d="M465.06,203.41l-51.21-129.83h-25.05l65.3,166.02h21.69l50.95-122.65h-25.05l-36.64,86.46Zm118.02-83.33c-36.98,0-55.47,19.82-55.47,59.44s18.49,59.22,55.47,59.22,55.24-19.73,55.24-59.22-18.41-59.44-55.24-59.44Zm25.94,85.69c-4.92,6.58-13.57,9.87-25.94,9.87s-21.02-3.29-25.95-9.87c-4.03-5.39-6.04-14.13-6.04-26.25s2.01-20.86,6.04-26.24c4.92-6.73,13.57-10.1,25.95-10.1s21.02,3.36,25.94,10.1c4.03,5.38,6.04,14.13,6.04,26.24s-2.01,20.86-6.04,26.25Zm40.81,32.97h23.26V120.08h-23.26v118.66Zm0-142.06h23.26v-23.11h-23.26v23.11Zm91.6,23.39c-36.83,0-55.24,19.83-55.24,59.47v105.98h23.26v-46.79h31.99c36.98,0,55.47-19.73,55.47-59.22s-18.49-59.44-55.47-59.44Zm26.16,85.69c-5.07,6.58-13.79,9.87-26.16,9.87h-31.99v-36.12c0-12.11,2.02-20.86,6.05-26.24,4.91-6.73,13.56-10.1,25.94-10.1s21.09,3.36,26.16,10.1c4.02,5.38,6.03,14.13,6.03,26.24s-2.01,20.71-6.03,26.25Z"/>
  </g>
  <g>
    <path class="cls-19" d="M892.68,116.95l-34.88,86.46-51.21-129.83h-25.05l65.3,166.02h21.69l49.19-122.65h-25.05Zm80.26,3.13c-36.98,0-55.47,19.82-55.47,59.44s18.49,59.22,55.47,59.22,55.23-19.73,55.23-59.22-18.41-59.44-55.23-59.44Zm25.94,85.69c-4.92,6.58-13.57,9.87-25.94,9.87s-21.03-3.29-25.95-9.87c-4.03-5.39-6.03-14.13-6.03-26.25s2-20.86,6.03-26.24c4.92-6.73,13.57-10.1,25.95-10.1s21.02,3.36,25.94,10.1c4.02,5.38,6.03,14.13,6.03,26.24s-2.01,20.86-6.03,26.25Zm40.81,32.97h23.26V120.08h-23.26v118.66Zm0-142.06h23.26v-23.11h-23.26v23.11Zm90.17,46.5c14.17,0,23.48,4.34,27.96,13.04h24.59c-6.41-24.1-23.93-36.14-52.55-36.14-36.83,0-55.24,19.74-55.24,59.22s18.41,59.44,55.24,59.44c28.62,0,46.14-12.07,52.55-36.23h-24.59c-4.63,8.76-13.94,13.12-27.96,13.12-12.37,0-21.02-3.36-25.94-10.09-4.03-5.39-6.04-14.13-6.04-26.25s2.01-20.86,6.04-26.25c4.91-6.58,13.56-9.87,25.94-9.87Zm168.12,36.31c0-39.61-18.42-59.42-55.24-59.42s-55.47,19.82-55.47,59.44,18.49,59.22,55.47,59.22h55.24v-23.1h-55.24c-18.64,0-29.15-8.18-31.53-24.53h86.77v-11.61Zm-86.77-11.49c2.38-16.55,12.89-24.82,31.53-24.82s28.92,8.27,31.31,24.82h-62.84Z"/>
    <path class="cls-32" d="M892.68,116.95l-34.88,86.46-51.21-129.83h-25.05l65.3,166.02h21.69l49.19-122.65h-25.05Zm80.26,3.13c-36.98,0-55.47,19.82-55.47,59.44s18.49,59.22,55.47,59.22,55.23-19.73,55.23-59.22-18.41-59.44-55.23-59.44Zm25.94,85.69c-4.92,6.58-13.57,9.87-25.94,9.87s-21.03-3.29-25.95-9.87c-4.03-5.39-6.03-14.13-6.03-26.25s2-20.86,6.03-26.24c4.92-6.73,13.57-10.1,25.95-10.1s21.02,3.36,25.94,10.1c4.02,5.38,6.03,14.13,6.03,26.24s-2.01,20.86-6.03,26.25Zm40.81,32.97h23.26V120.08h-23.26v118.66Zm0-142.06h23.26v-23.11h-23.26v23.11Zm90.17,46.5c14.17,0,23.48,4.34,27.96,13.04h24.59c-6.41-24.1-23.93-36.14-52.55-36.14-36.83,0-55.24,19.74-55.24,59.22s18.41,59.44,55.24,59.44c28.62,0,46.14-12.07,52.55-36.23h-24.59c-4.63,8.76-13.94,13.12-27.96,13.12-12.37,0-21.02-3.36-25.94-10.09-4.03-5.39-6.04-14.13-6.04-26.25s2.01-20.86,6.04-26.25c4.91-6.58,13.56-9.87,25.94-9.87Zm168.12,36.31c0-39.61-18.42-59.42-55.24-59.42s-55.47,19.82-55.47,59.44,18.49,59.22,55.47,59.22h55.24v-23.1h-55.24c-18.64,0-29.15-8.18-31.53-24.53h86.77v-11.61Zm-86.77-11.49c2.38-16.55,12.89-24.82,31.53-24.82s28.92,8.27,31.31,24.82h-62.84Z"/>
  </g>
</svg>